# xmcd
#
# Track frame offsets:
#	150
#	5563
#	17691
#	30914
#	37909
#	55803
#	69900
#	87285
#	111529
#	128485
#	170440
#	177715
#	201186
#	206093
#
# Disc length: 2931 seconds
# Revision: 0
# Processed by: cddbd v1.5.2PL0 Copyright (c) Steve Scherf et al.
# Submitted via: dBpowerAMP V12.0
#
DISCID=b70b710e
DTITLE=Geff Dawson - A Tougher Horse
DYEAR=2009
DGENRE=Country
TTITLE0=A Cowboy
TTITLE1=Tougher Horses
TTITLE2=Rindercella
TTITLE3=Promised Land
TTITLE4=90-Mile An Hour
TTITLE5=One Good Horse
TTITLE6=Bronco Twister's Prayer
TTITLE7=Ghost Cowboy
TTITLE8=I Hear The Trailer Comin'
TTITLE9=Johnny Western Sang Cowpoke
TTITLE10=Daddy Told Me
TTITLE11=Cowboy Dream
TTITLE12=The Day Would Come
TTITLE13=Branson Missouri Blues
EXTD=
EXTT0=
EXTT1=
EXTT2=
EXTT3=
EXTT4=
EXTT5=
EXTT6=
EXTT7=
EXTT8=
EXTT9=
EXTT10=
EXTT11=
EXTT12=
EXTT13=
PLAYORDER=
